<mxfile host="app.diagrams.net" modified="2024-05-13T08:46:54.012Z" agent="Mozilla/5.0 (Windows NT 10.0; Win64; x64) AppleWebKit/537.36 (KHTML, like Gecko) Chrome/124.0.0.0 Safari/537.36" version="24.2.1" etag="hqcfrMLZN23jm-CeNP6G" type="github">
  <diagram name="Pagina-1" id="xOwArk9DovRZirVe2Dwb">
    <mxGraphModel>
      <root>
        <mxCell id="0" />
        <mxCell id="1" parent="0" />
      </root>
    </mxGraphModel>
  </diagram>
</mxfile>
